<mxfile host="app.diagrams.net" modified="2022-05-06T14:00:50.465Z" agent="5.0 (Windows NT 10.0; Win64; x64) AppleWebKit/537.36 (KHTML, like Gecko) Chrome/100.0.4896.127 Safari/537.36" etag="9PJ5nt_jCrqvkIrfIdle" version="18.0.1" type="github">
  <diagram id="R8haLM-VseDuqtdlzJ78" name="第 1 页">
    <mxGraphModel dx="1422" dy="754" grid="1" gridSize="10" guides="1" tooltips="1" connect="1" arrows="1" fold="1" page="1" pageScale="1" pageWidth="827" pageHeight="1169" math="0" shadow="0">
      <root>
        <mxCell id="0" />
        <mxCell id="1" parent="0" />
        <mxCell id="-tvEcmM4YoeUwQgJD7Ol-7" value="" style="rounded=0;whiteSpace=wrap;html=1;dashed=1;" vertex="1" parent="1">
          <mxGeometry x="10" y="30" width="1260" height="740" as="geometry" />
        </mxCell>
        <mxCell id="-tvEcmM4YoeUwQgJD7Ol-2" value="" style="rounded=0;whiteSpace=wrap;html=1;" vertex="1" parent="1">
          <mxGeometry x="60" y="80" width="1170" height="660" as="geometry" />
        </mxCell>
        <mxCell id="-tvEcmM4YoeUwQgJD7Ol-4" value="header" style="rounded=0;whiteSpace=wrap;html=1;" vertex="1" parent="1">
          <mxGeometry x="60" y="80" width="1170" height="60" as="geometry" />
        </mxCell>
        <mxCell id="-tvEcmM4YoeUwQgJD7Ol-5" value="aside" style="rounded=0;whiteSpace=wrap;html=1;" vertex="1" parent="1">
          <mxGeometry x="60" y="140" width="310" height="600" as="geometry" />
        </mxCell>
        <mxCell id="-tvEcmM4YoeUwQgJD7Ol-6" value="main" style="rounded=0;whiteSpace=wrap;html=1;" vertex="1" parent="1">
          <mxGeometry x="380" y="150" width="840" height="580" as="geometry" />
        </mxCell>
        <mxCell id="-tvEcmM4YoeUwQgJD7Ol-9" value="Home组件" style="text;strokeColor=none;fillColor=none;html=1;fontSize=24;fontStyle=1;verticalAlign=middle;align=center;dashed=1;" vertex="1" parent="1">
          <mxGeometry x="550" y="10" width="100" height="40" as="geometry" />
        </mxCell>
      </root>
    </mxGraphModel>
  </diagram>
</mxfile>
